<svg width="273" height="228" viewBox="0 0 273 228" fill="none" xmlns="http://www.w3.org/2000/svg">
<rect x="0.401855" y="0.689453" width="45.3406" height="45.3406" fill="#9F6201"/>
<rect x="0.401855" y="46.0303" width="45.3406" height="45.3406" fill="#B57B1F"/>
<rect x="136.424" y="46.0303" width="45.3406" height="45.3406" fill="#B57B1F"/>
<rect x="91.083" y="182.052" width="45.3406" height="45.3406" fill="#B27008"/>
<rect x="136.424" y="91.3711" width="45.3406" height="45.3406" fill="#B26F05"/>
<rect x="0.401855" y="91.3711" width="45.3406" height="45.3406" fill="#C0934B"/>
<rect x="227.105" y="0.689453" width="45.3406" height="45.3406" fill="#BE924C"/>
<rect x="45.7427" y="182.052" width="45.3406" height="45.3406" fill="#B97C1C"/>
<rect x="181.765" y="182.052" width="45.3406" height="45.3406" fill="#B97C1D"/>
<rect x="0.401855" y="136.712" width="45.3406" height="45.3406" fill="#C38F3E"/>
<rect x="136.424" y="136.712" width="45.3406" height="45.3406" fill="#C38F3E"/>
<rect x="91.083" y="0.689453" width="45.3406" height="45.3406" fill="#DB9B35"/>
<rect x="227.105" y="182.052" width="45.3406" height="45.3406" fill="#DB9B35"/>
<rect x="45.7427" y="0.689453" width="45.3406" height="45.3406" fill="#965C01"/>
<rect x="181.765" y="0.689453" width="45.3406" height="45.3406" fill="#965C01"/>
<rect x="45.7427" y="91.3711" width="45.3406" height="45.3406" fill="#D3850B"/>
<rect x="0.401855" y="182.052" width="45.3406" height="45.3406" fill="#F9A014"/>
</svg>